<svg xmlns="http://www.w3.org/2000/svg" xmlns:xlink="http://www.w3.org/1999/xlink" version="1.1" id="Your_Icon" x="0px" y="0px" width="100px" height="100px" viewBox="0 0 100 100" enable-background="new 0 0 100 100" xml:space="preserve">
<g>
	<path d="M90.878,72.606H80.85V24.973l5.864-5.864c1.618-1.608,1.618-4.215,0-5.823c-1.608-1.608-4.215-1.608-5.823,0l-5.864,5.864   H27.394V9.122C27.394,6.845,25.55,5,23.272,5c-2.278,0-4.122,1.845-4.122,4.122V19.15H9.122C6.845,19.15,5,20.995,5,23.272   c0,2.278,1.845,4.122,4.122,4.122H19.15v49.334c0,0.278,0.031,0.556,0.082,0.824c0.031,0.134,0.062,0.268,0.103,0.402   c0.113,0.371,0.278,0.721,0.505,1.051c0.072,0.113,0.144,0.227,0.237,0.33c0.082,0.103,0.175,0.206,0.278,0.309   c0.103,0.103,0.206,0.196,0.309,0.278c0.103,0.093,0.217,0.165,0.33,0.237c0.33,0.227,0.68,0.392,1.051,0.505   c0.134,0.041,0.268,0.072,0.402,0.103c0.268,0.052,0.546,0.083,0.825,0.083h49.334v10.027c0,2.278,1.845,4.122,4.122,4.122   s4.122-1.845,4.122-4.122V80.85h10.027c2.278,0,4.122-1.845,4.122-4.122C95,74.45,93.155,72.606,90.878,72.606z M27.394,27.394   h39.388L27.394,66.773V27.394z M33.228,72.606l39.378-39.388v39.388H33.228z"/>
</g>
</svg>